<?xml version="1.0" encoding="UTF-8" standalone="no"?>
<svg width="1600px" height="1235px" viewBox="0 0 1600 1235" version="1.1" xmlns="http://www.w3.org/2000/svg" xmlns:xlink="http://www.w3.org/1999/xlink" xmlns:sketch="http://www.bohemiancoding.com/sketch/ns">
    <title>Allstate Logo Symbol</title>
    <desc>Allstate Logo. You're in good hands.</desc>
    <defs></defs>
    <g id="Page-1" stroke="none" stroke-width="1" fill="none" fill-rule="evenodd" sketch:type="MSPage">
        <g id="Group-+-Shape" sketch:type="MSLayerGroup" fill="#0033A0">
            <g id="Group" sketch:type="MSShapeGroup">
                <path d="M797.948718,0 C356.923077,0 0,272.871667 0,607.293333 C0,941.715 358.974359,1235.10333 797.948718,1235.10333 C1238.97436,1235.10333 1595.89744,941.715 1595.89744,607.293333 C1597.94872,272.871667 1238.97436,0 797.948718,0 L797.948718,0 Z M797.948718,1194.07 C416.410256,1194.07 106.666667,921.198333 106.666667,609.345 C106.666667,297.491667 416.410256,43.085 797.948718,43.085 C1179.48718,43.085 1489.23077,297.491667 1489.23077,609.345 C1489.23077,919.146667 1179.48718,1194.07 797.948718,1194.07 L797.948718,1194.07 Z" id="Shape"></path>
                <path d="M646.153846,867.855 L660.512821,882.216667 L687.179487,898.63 L713.846154,912.991667 L717.948718,915.043333 L736.410256,925.301667 L769.230769,943.766667 L775.384615,943.766667 L816.410256,941.715 C841.025641,941.715 867.692308,941.715 886.153846,949.921667 C906.666667,960.18 900.512821,980.696667 900.512821,980.696667 C900.512821,980.696667 921.025641,966.335 916.923077,947.87 C914.871795,933.508333 896.410256,912.991667 834.871795,908.888333 C816.410256,906.836667 787.692308,910.94 787.692308,910.94 L785.641026,910.94 L758.974359,892.475 L746.666667,886.32 C744.615385,886.32 709.74359,865.803333 709.74359,865.803333 L687.179487,857.596667 L666.666667,828.873333 L658.461538,818.615 L635.897436,787.84 L625.641026,773.478333 L613.333333,755.013333 C613.333333,755.013333 625.641026,738.6 623.589744,718.083333 C621.538462,720.135 621.538462,722.186667 611.282051,728.341667 C603.076923,734.496667 576.410256,746.806667 560,750.91 L551.794872,752.961667 L613.333333,832.976667 L646.153846,867.855 L646.153846,867.855 Z M746.666667,822.718333 L750.769231,828.873333 C752.820513,830.925 777.435897,841.183333 777.435897,841.183333 C793.846154,847.338333 818.461538,859.648333 828.717949,865.803333 L857.435897,882.216667 C859.487179,882.216667 890.25641,880.165 908.717949,882.216667 C933.333333,884.268333 951.794872,894.526667 962.051282,908.888333 C976.410256,927.353333 960,947.87 960,947.87 L960,947.87 C964.102564,945.818333 990.769231,927.353333 988.717949,900.681667 C986.666667,874.01 964.102564,847.338333 875.897436,849.39 L851.282051,835.028333 L845.128205,830.925 L806.153846,810.408333 L775.384615,800.15 C775.384615,798.098333 767.179487,785.788333 767.179487,785.788333 C756.923077,767.323333 742.564103,748.858333 730.25641,732.445 L726.153846,728.341667 C726.153846,728.341667 705.641026,699.618333 701.538462,695.515 C707.692308,681.153333 703.589744,660.636667 703.589744,660.636667 C703.589744,660.636667 699.487179,666.791667 693.333333,674.998333 C687.179487,683.205 670.769231,695.515 660.512821,701.67 L654.358974,705.773333 L734.358974,814.511667 L746.666667,822.718333 L746.666667,822.718333 Z M781.538462,629.861667 C785.641026,613.448333 777.435897,594.983333 777.435897,594.983333 L773.333333,605.241667 C769.230769,615.5 758.974359,625.758333 742.564103,636.016667 L738.461538,638.068333 L802.051282,730.393333 L806.153846,736.548333 L818.461538,752.961667 C820.512821,755.013333 845.128205,769.375 845.128205,769.375 L855.384615,775.53 L884.102564,791.943333 L910.769231,810.408333 L912.820513,810.408333 L951.794872,812.46 C976.410256,814.511667 988.717949,822.718333 996.923077,828.873333 C1021.53846,847.338333 1009.23077,874.01 1009.23077,874.01 C1009.23077,874.01 1042.05128,843.235 1021.53846,808.356667 C1013.33333,796.046667 1001.02564,785.788333 968.205128,781.685 L927.179487,775.53 L904.615385,761.168333 L875.897436,742.703333 L867.692308,738.6 L845.128205,728.341667 L781.538462,629.861667 L781.538462,629.861667 Z M516.923077,86.17 C518.974359,88.2216667 525.128205,94.3766667 525.128205,94.3766667 L557.948718,123.1 L576.410256,139.513333 C590.769231,151.823333 592.820513,160.03 592.820513,162.081667 C592.820513,164.133333 588.717949,166.185 586.666667,166.185 C584.615385,168.236667 580.512821,168.236667 580.512821,168.236667 L578.461538,180.546667 L586.666667,180.546667 C629.74359,180.546667 668.717949,209.27 695.384615,231.838333 C740.512821,274.923333 773.333333,344.68 781.538462,408.281667 L816.410256,590.88 L828.717949,619.603333 L830.769231,625.758333 L836.923077,638.068333 C841.025641,650.378333 849.230769,660.636667 851.282051,660.636667 L869.74359,674.998333 L894.358974,701.67 L902.564103,709.876667 L914.871795,722.186667 L951.794872,728.341667 C1013.33333,738.6 1011.28205,773.478333 1011.28205,773.478333 C1011.28205,773.478333 1048.20513,716.031667 960,695.515 L931.282051,689.36 L921.025641,674.998333 C918.974359,672.946667 916.923077,670.895 916.923077,670.895 L890.25641,644.223333 L877.948718,631.913333 L867.692308,603.19 L851.282051,566.26 C847.179487,553.95 845.128205,535.485 841.025641,510.865 L838.974359,492.4 L826.666667,416.488333 C826.666667,414.436667 828.717949,402.126667 828.717949,402.126667 C832.820513,373.403333 845.128205,340.576667 861.538462,307.75 C880,266.716667 921.025641,240.045 921.025641,240.045 C951.794872,221.58 994.871795,211.321667 1019.48718,207.218333 C1027.69231,207.218333 1031.79487,201.063333 1033.84615,194.908333 L1035.89744,192.856667 L1033.84615,192.856667 C1021.53846,190.805 1005.12821,186.701667 1005.12821,182.598333 L1005.12821,180.546667 C1005.12821,178.495 1007.17949,174.391667 1009.23077,170.288333 L1027.69231,151.823333 L1037.94872,141.565 C1037.94872,141.565 1085.12821,96.4283333 1091.28205,90.2733333 L1048.20513,75.9116667 C1042.05128,82.0666667 1001.02564,125.151667 1001.02564,125.151667 C968.205128,160.03 933.333333,196.96 916.923077,205.166667 C875.897436,221.58 834.871795,260.561667 818.461538,299.543333 C818.461538,299.543333 810.25641,318.008333 808.205128,328.266667 C795.897436,293.388333 781.538462,264.665 758.974359,237.993333 C736.410256,211.321667 707.692308,190.805 672.820513,176.443333 C654.358974,157.978333 592.820513,102.583333 557.948718,73.86 L516.923077,86.17 L516.923077,86.17 Z M681.025641,1009.42 C623.589744,1038.14333 592.820513,1013.52333 607.179487,982.748333 C625.641026,995.058333 654.358974,1003.265 681.025641,1009.42 L681.025641,1009.42 Z M584.615385,966.335 C545.641026,976.593333 531.282051,949.921667 541.538462,927.353333 C547.692308,935.56 574.358974,960.18 584.615385,966.335 L584.615385,966.335 Z M235.897436,272.871667 C237.948718,274.923333 246.153846,281.078333 246.153846,281.078333 C248.205128,281.078333 295.384615,322.111667 301.538462,328.266667 C299.487179,330.318333 281.025641,385.713333 281.025641,385.713333 C262.564103,430.85 244.102564,478.038333 244.102564,512.916667 L244.102564,519.071667 L260.512821,601.138333 L262.564103,607.293333 C270.769231,650.378333 281.025641,699.618333 285.128205,734.496667 C285.128205,744.755 289.230769,750.91 293.333333,752.961667 C317.948718,777.581667 354.871795,826.821667 402.051282,923.25 C404.102564,925.301667 404.102564,927.353333 404.102564,927.353333 C408.205128,939.663333 414.358974,949.921667 420.512821,954.025 C428.717949,960.18 445.128205,960.18 455.384615,954.025 C480,937.611667 496.410256,917.095 506.666667,890.423333 C510.769231,894.526667 521.025641,906.836667 521.025641,908.888333 C480,978.645 551.794872,1005.31667 576.410256,995.058333 C562.051282,1038.14333 615.384615,1070.97 666.666667,1048.40167 C672.820513,1075.07333 695.384615,1083.28 715.897436,1087.38333 C736.410256,1091.48667 765.128205,1093.53833 810.25641,1089.435 C880,1083.28 941.538462,1062.76333 966.153846,1050.45333 C1019.48718,1023.78167 1048.20513,988.903333 1064.61538,964.283333 C1064.61538,964.283333 1068.71795,960.18 1070.76923,958.128333 C1076.92308,968.386667 1083.07692,976.593333 1089.23077,984.8 C1105.64103,1001.21333 1122.05128,1009.42 1134.35897,1007.36833 C1144.61538,1005.31667 1150.76923,999.161667 1154.87179,988.903333 C1179.48718,931.456667 1230.76923,861.7 1269.74359,814.511667 L1269.74359,814.511667 L1273.84615,806.305 C1282.05128,773.478333 1314.87179,689.36 1331.28205,646.275 L1343.58974,613.448333 L1345.64103,605.241667 C1345.64103,592.931667 1347.69231,580.621667 1347.69231,566.26 C1347.69231,508.813333 1339.48718,453.418333 1323.07692,408.281667 C1314.87179,385.713333 1306.66667,371.351667 1300.51282,356.99 L1292.30769,340.576667 C1304.61538,324.163333 1337.4359,301.595 1364.10256,283.13 C1364.10256,283.13 1366.15385,283.13 1366.15385,281.078333 L1333.33333,244.148333 C1331.28205,246.2 1310.76923,260.561667 1310.76923,260.561667 C1286.15385,276.975 1261.53846,283.13 1247.17949,276.975 C1245.12821,276.975 1224.61538,264.665 1224.61538,264.665 C1222.5641,264.665 1220.51282,262.613333 1220.51282,262.613333 L1214.35897,262.613333 L1206.15385,264.665 L1202.05128,266.716667 L1208.20513,274.923333 C1222.5641,291.336667 1228.71795,305.698333 1238.97436,326.215 L1245.12821,338.525 L1251.28205,352.886667 L1253.33333,354.938333 L1261.53846,375.455 L1263.58974,379.558333 L1267.69231,391.868333 L1284.10256,447.263333 C1298.46154,504.71 1304.61538,551.898333 1304.61538,590.88 L1304.61538,590.88 L1304.61538,594.983333 L1286.15385,648.326667 C1267.69231,703.721667 1243.07692,771.426667 1236.92308,798.098333 L1234.87179,802.201667 C1183.58974,855.545 1146.66667,919.146667 1130.25641,958.128333 C1128.20513,962.231667 1126.15385,964.283333 1126.15385,964.283333 C1124.10256,964.283333 1117.94872,960.18 1113.84615,956.076667 C1101.53846,943.766667 1093.33333,921.198333 1093.33333,894.526667 C1095.38462,863.751667 1107.69231,835.028333 1130.25641,816.563333 C1134.35897,814.511667 1132.30769,808.356667 1132.30769,806.305 C1126.15385,771.426667 1136.41026,716.031667 1158.97436,699.618333 L1165.12821,695.515 L1158.97436,691.411667 C1095.38462,642.171667 1064.61538,551.898333 1062.5641,484.193333 L1062.5641,475.986667 L1052.30769,480.09 C1050.25641,480.09 1048.20513,486.245 1048.20513,486.245 C1046.15385,498.555 1044.10256,512.916667 1044.10256,525.226667 C1044.10256,560.105 1050.25641,590.88 1054.35897,601.138333 C1062.5641,638.068333 1081.02564,672.946667 1107.69231,703.721667 C1107.69231,703.721667 1107.69231,703.721667 1109.74359,705.773333 C1097.4359,720.135 1093.33333,757.065 1093.33333,783.736667 C1093.33333,791.943333 1093.33333,800.15 1095.38462,806.305 C1066.66667,830.925 1058.46154,863.751667 1056.41026,886.32 L1056.41026,910.94 L1042.05128,929.405 L1040,933.508333 C1011.28205,972.49 992.820513,999.161667 945.641026,1023.78167 C894.358974,1050.45333 795.897436,1068.91833 730.25641,1062.76333 C705.641026,1060.71167 709.74359,1038.14333 709.74359,1038.14333 C709.74359,1036.09167 711.794872,1031.98833 713.846154,1029.93667 C713.846154,1029.93667 717.948718,1025.83333 720,1023.78167 C781.538462,1029.93667 838.974359,1023.78167 863.589744,1011.47167 L871.794872,999.161667 L873.846154,993.006667 L867.692308,995.058333 C816.410256,1007.36833 713.846154,990.955 658.461538,968.386667 C598.974359,941.715 580.512821,917.095 529.230769,853.493333 L514.871795,835.028333 C514.871795,816.563333 508.717949,798.098333 500.512821,781.685 C492.307692,767.323333 482.051282,757.065 477.948718,755.013333 C482.051282,744.755 484.102564,728.341667 484.102564,711.928333 C484.102564,689.36 480,668.843333 471.794872,656.533333 C508.717949,627.81 527.179487,599.086667 527.179487,564.208333 C527.179487,547.795 518.974359,523.175 518.974359,523.175 L504.615385,517.02 L504.615385,527.278333 C510.769231,584.725 457.435897,621.655 420.512821,646.275 L410.25641,652.43 L416.410256,656.533333 C445.128205,672.946667 445.128205,732.445 438.974359,765.271667 L438.974359,767.323333 L441.025641,769.375 L443.076923,769.375 L455.384615,779.633333 C484.102564,816.563333 482.051282,876.061667 451.282051,908.888333 C445.128205,915.043333 441.025641,917.095 438.974359,915.043333 C434.871795,915.043333 430.769231,902.733333 430.769231,900.681667 L422.564103,882.216667 C397.948718,832.976667 377.435897,789.891667 330.25641,734.496667 L328.205128,730.393333 C320,656.533333 307.692308,603.19 297.435897,549.846667 L291.282051,521.123333 L291.282051,512.916667 C295.384615,457.521667 311.794872,412.385 332.307692,363.145 L344.615385,332.37 L354.871795,307.75 L356.923077,303.646667 C369.230769,287.233333 385.641026,270.82 404.102564,256.458333 L412.307692,250.303333 L402.051282,246.2 C402.051282,246.2 379.487179,248.251667 358.974359,258.51 L354.871795,260.561667 C338.461538,268.768333 320,274.923333 305.641026,268.768333 C305.641026,268.768333 268.717949,246.2 266.666667,246.2 L235.897436,272.871667 L235.897436,272.871667 Z" id="SVGID_1_"></path>
            </g>
            <path d="M1534.5,1101 C1502.27419,1101 1479,1077.72581 1479,1045.5 C1479,1011.48387 1502.27419,990 1534.5,990 C1566.72581,990 1590,1013.27419 1590,1045.5 C1590,1077.72581 1566.72581,1101 1534.5,1101 L1534.5,1101 Z M1534.5,995.370968 C1507.64516,995.370968 1487.95161,1013.27419 1487.95161,1045.5 C1487.95161,1077.72581 1509.43548,1095.62903 1534.5,1095.62903 C1561.35484,1095.62903 1581.04839,1077.72581 1581.04839,1045.5 C1582.83871,1013.27419 1561.35484,995.370968 1534.5,995.370968 L1534.5,995.370968 Z M1550.6129,1074.14516 L1532.70968,1047.29032 L1527.33871,1047.29032 L1527.33871,1072.35484 L1516.59677,1072.35484 L1516.59677,1009.69355 L1534.5,1009.69355 C1547.03226,1009.69355 1555.98387,1016.85484 1555.98387,1027.59677 C1555.98387,1036.54839 1550.6129,1041.91935 1543.45161,1045.5 L1561.35484,1070.56452 L1550.6129,1074.14516 L1550.6129,1074.14516 Z M1534.5,1020.43548 L1525.54839,1020.43548 L1525.54839,1038.33871 L1532.70968,1038.33871 C1539.87097,1038.33871 1543.45161,1034.75806 1543.45161,1029.3871 C1545.24194,1024.01613 1541.66129,1020.43548 1534.5,1020.43548 L1534.5,1020.43548 Z" id="Shape" sketch:type="MSShapeGroup"></path>
        </g>
    </g>
</svg>